<svg xmlns="http://www.w3.org/2000/svg" viewBox="0 0 1024 1024">
  <defs>
    <pattern id="grid" width="64" height="64" patternUnits="userSpaceOnUse">
      <path d="M64 0H0V64" fill="none" stroke="#181916" stroke-width="2" opacity="0.06"/>
    </pattern>
    <clipPath id="squircle">
      <rect x="2" y="2" width="1020" height="1020" rx="223" ry="223"/>
    </clipPath>
  </defs>

  <rect x="2" y="2" width="1020" height="1020" rx="223" ry="223" fill="#F3F1E9"/>
  <rect x="0" y="0" width="1024" height="1024" fill="url(#grid)" clip-path="url(#squircle)"/>

  <rect x="272" y="250" width="120" height="74" rx="4" fill="#F3F1E9" stroke="#181916" stroke-width="3.5"/>
  <rect x="272" y="340" width="120" height="74" rx="4" fill="#181916" stroke="#181916" stroke-width="3.5"/>
  <rect x="272" y="430" width="120" height="74" rx="4" fill="#181916" stroke="#181916" stroke-width="3.5"/>
  <rect x="272" y="520" width="120" height="74" rx="4" fill="#181916" stroke="#181916" stroke-width="3.5"/>
  <rect x="272" y="610" width="120" height="74" rx="4" fill="#181916" stroke="#181916" stroke-width="3.5"/>
  <rect x="272" y="700" width="120" height="74" rx="4" fill="#181916" stroke="#181916" stroke-width="3.5"/>

  <rect x="452" y="250" width="120" height="74" rx="4" fill="#F3F1E9" stroke="#181916" stroke-width="3.5"/>
  <rect x="452" y="340" width="120" height="74" rx="4" fill="#F3F1E9" stroke="#181916" stroke-width="3.5"/>
  <rect x="452" y="430" width="120" height="74" rx="4" fill="#F3F1E9" stroke="#181916" stroke-width="3.5"/>
  <rect x="452" y="520" width="120" height="74" rx="4" fill="#3047F5" stroke="#181916" stroke-width="3.5"/>
  <rect x="452" y="610" width="120" height="74" rx="4" fill="#3047F5" stroke="#181916" stroke-width="3.5"/>
  <rect x="452" y="700" width="120" height="74" rx="4" fill="#3047F5" stroke="#181916" stroke-width="3.5"/>

  <rect x="632" y="250" width="120" height="74" rx="4" fill="#F3F1E9" stroke="#181916" stroke-width="3.5"/>
  <rect x="632" y="340" width="120" height="74" rx="4" fill="#F3F1E9" stroke="#181916" stroke-width="3.5"/>
  <rect x="632" y="430" width="120" height="74" rx="4" fill="#F3F1E9" stroke="#181916" stroke-width="3.5"/>
  <rect x="632" y="520" width="120" height="74" rx="4" fill="#F3F1E9" stroke="#181916" stroke-width="3.5"/>
  <rect x="632" y="610" width="120" height="74" rx="4" fill="#F3F1E9" stroke="#181916" stroke-width="3.5"/>
  <rect x="632" y="700" width="120" height="74" rx="4" fill="#D8FF3E" stroke="#181916" stroke-width="3.5"/>

  <circle cx="744" cy="206" r="30" fill="#D8FF3E" stroke="#181916" stroke-width="3.5"/>

  <rect x="2" y="2" width="1020" height="1020" rx="223" ry="223" fill="none" stroke="#181916" stroke-width="4"/>
</svg>
